<svg xmlns="http://www.w3.org/2000/svg" viewBox="0 0 32 32" width="32" height="32">
  <rect width="32" height="32" rx="6" fill="#0F2341"/>
  <g fill="#D9B344" transform="translate(16 16)">
    <circle r="1.6" cx="0" cy="-7.2"/>
    <circle r="1.6" cx="5.1" cy="-5.1"/>
    <circle r="1.6" cx="7.2" cy="0"/>
    <circle r="1.6" cx="5.1" cy="5.1"/>
    <circle r="1.6" cx="0" cy="7.2"/>
    <circle r="1.6" cx="-5.1" cy="5.1"/>
    <circle r="1.6" cx="-7.2" cy="0"/>
    <circle r="1.6" cx="-5.1" cy="-5.1"/>
    <rect x="-0.9" y="-6.2" width="1.8" height="4.2" rx="0.9" transform="rotate(0)"/>
    <rect x="-0.9" y="-6.2" width="1.8" height="4.2" rx="0.9" transform="rotate(45)"/>
    <rect x="-0.9" y="-6.2" width="1.8" height="4.2" rx="0.9" transform="rotate(90)"/>
    <rect x="-0.9" y="-6.2" width="1.8" height="4.2" rx="0.9" transform="rotate(135)"/>
    <rect x="-0.9" y="-6.2" width="1.8" height="4.2" rx="0.9" transform="rotate(180)"/>
    <rect x="-0.9" y="-6.2" width="1.8" height="4.2" rx="0.9" transform="rotate(225)"/>
    <rect x="-0.9" y="-6.2" width="1.8" height="4.2" rx="0.9" transform="rotate(270)"/>
    <rect x="-0.9" y="-6.2" width="1.8" height="4.2" rx="0.9" transform="rotate(315)"/>
  </g>
</svg>
